<?xml version="1.0" encoding="UTF-8"?>
<svg version="1.1" xmlns="http://www.w3.org/2000/svg" width="180" height="180">
<path d="M0 0 C0.94359375 0.71736328 0.94359375 0.71736328 1.90625 1.44921875 C17.22642976 13.60090679 29.13033151 35.39797507 31.76855469 54.66259766 C34.47697354 82.01534253 29.55361227 106.41829565 12 128 C11.52175781 128.6290625 11.04351562 129.258125 10.55078125 129.90625 C-1.60090679 145.22642976 -23.39797507 157.13033151 -42.66259766 159.76855469 C-70.01534253 162.47697354 -94.41829565 157.55361227 -116 140 C-116.94359375 139.28263672 -116.94359375 139.28263672 -117.90625 138.55078125 C-133.22642976 126.39909321 -145.13033151 104.60202493 -147.76855469 85.33740234 C-150.47697354 57.98465747 -145.55361227 33.58170435 -128 12 C-127.52175781 11.3709375 -127.04351562 10.741875 -126.55078125 10.09375 C-114.39909321 -5.22642976 -92.60202493 -17.13033151 -73.33740234 -19.76855469 C-45.98465747 -22.47697354 -21.58170435 -17.55361227 0 0 Z " fill="#FDFDFD" transform="translate(148,20)"/>
<path d="M0 0 C0.94359375 0.71736328 0.94359375 0.71736328 1.90625 1.44921875 C17.22642976 13.60090679 29.13033151 35.39797507 31.76855469 54.66259766 C34.47385145 81.98381198 29.5741256 106.45515146 12 128 C11.48695313 128.65226563 10.97390625 129.30453125 10.4453125 129.9765625 C6.77427643 134.48102297 2.56981 138.4117721 -2 142 C-2.33 142 -2.66 142 -3 142 C-3.47993156 139.45847565 -3.95896727 136.91678778 -4.4375 134.375 C-4.57220703 133.66214844 -4.70691406 132.94929687 -4.84570312 132.21484375 C-5.11110797 130.80366679 -5.37287103 129.3917997 -5.63085938 127.97924805 C-5.95802517 126.22505951 -6.31840035 124.47713662 -6.68359375 122.73046875 C-7.01518596 119.86895083 -6.78489634 118.52864458 -5.625 115.9375 C-1.47826988 106.46202791 -1.6771448 95.42534538 -5.38671875 85.87890625 C-6.77146941 81.63645361 -5.12585712 78.29198851 -3.4375 74.375 C-0.08296269 65.59645958 -1.68704767 57.41269445 -5.22265625 48.984375 C-6.86466217 46.22724858 -8.38061473 44.63255457 -10.640625 42.41796875 C-15.27053049 37.28416518 -14.86484499 32.19520247 -14.6875 25.5625 C-14.53518378 16.10197058 -15.34663033 9.34957702 -20.75 1.4375 C-24.09480737 -0.69946027 -27.21276766 -0.71057852 -31 0 C-35.95410529 2.47705265 -37.33461308 6.42268914 -39.15234375 11.3828125 C-40.2899363 14.89519502 -41.19911001 18.39599504 -42 22 C-43.175625 21.505 -44.35125 21.01 -45.5625 20.5 C-54.83329252 17.41951514 -65.22396488 17.70153382 -74 22 C-74.31453125 20.90300781 -74.6290625 19.80601563 -74.953125 18.67578125 C-75.3848145 17.22117532 -75.81713991 15.76675801 -76.25 14.3125 C-76.45496094 13.59126953 -76.65992187 12.87003906 -76.87109375 12.12695312 C-78.2171276 7.66056808 -79.70734347 4.44411873 -83 1 C-86.22999161 -0.6149958 -89.50753681 -0.57759968 -93 0 C-98.66237294 4.02657631 -100.36776086 9.63763732 -101.6015625 16.19921875 C-101.97660637 19.77684315 -101.92079124 23.03474862 -101.73120117 26.60888672 C-101.27249897 36.66659159 -101.27249897 36.66659159 -103.37890625 40.52734375 C-104.58355401 41.75800982 -105.82829416 42.95067281 -107.109375 44.1015625 C-112.28596059 49.29953894 -114.28652152 56.96795801 -114.5625 64.125 C-114.36163499 69.24705773 -112.92388972 73.130592 -110.83203125 77.7578125 C-109.2054641 82.1411437 -110.59158525 85.82280455 -112.0625 90.0625 C-114.8344117 99.38620299 -113.19006421 109.06447983 -110 118 C-108.41868911 123.30868657 -109.68599441 127.13452241 -111.23046875 132.296875 C-112.15332271 135.53857521 -112.62844843 138.65603585 -113 142 C-117.18108065 138.49367588 -121.23214634 134.95624635 -125 131 C-125.52207031 130.47277344 -126.04414062 129.94554687 -126.58203125 129.40234375 C-143.6665714 111.2379681 -148.89181731 87.53999598 -148.33984375 63.359375 C-147.54354607 44.19155464 -140.06774567 26.83697573 -128 12 C-127.52175781 11.3709375 -127.04351562 10.741875 -126.55078125 10.09375 C-114.39909321 -5.22642976 -92.60202493 -17.13033151 -73.33740234 -19.76855469 C-45.98465747 -22.47697354 -21.58170435 -17.55361227 0 0 Z " fill="#FDFDFD" transform="translate(148,20)"/>
<path d="M0 0 C3.23734144 0.69089604 4.7190594 1.96258336 6.921875 4.41015625 C10.46492305 9.94138953 12.2198084 16.1176676 13.921875 22.41015625 C14.7675 21.91515625 15.613125 21.42015625 16.484375 20.91015625 C23.72560412 17.80677234 33.55424281 18.17073168 40.859375 20.91015625 C41.87 21.40515625 42.880625 21.90015625 43.921875 22.41015625 C44.293125 20.98703125 44.293125 20.98703125 44.671875 19.53515625 C49.12108493 4.33368898 49.12108493 4.33368898 55.921875 0.41015625 C58.85482691 -0.4679373 61.00623796 -0.57295836 63.921875 0.41015625 C68.66726251 4.1897506 71.54441579 8.50487657 72.921875 14.41015625 C73.18165228 19.63888502 73.14403481 24.87998461 73.04882812 30.11328125 C73.13787862 37.18643503 74.11939384 40.73682417 79.20483398 45.71533203 C84.32951834 50.77370809 86.21468063 58.54108236 86.484375 65.53515625 C86.28284308 70.66750254 84.84827159 74.59420869 82.75390625 79.234375 C81.18298015 83.34238362 82.58100932 86.44771198 83.984375 90.41015625 C86.51726292 99.08337852 85.37550764 108.54345294 82.67578125 117.0078125 C81.14694966 121.87947792 80.75808617 124.80492034 82.359375 129.72265625 C84.84647146 138.45095704 84.84647146 138.45095704 83.921875 143.41015625 C81.5476322 145.92437709 78.97434719 147.79197822 75.921875 149.41015625 C75.261875 149.41015625 74.601875 149.41015625 73.921875 149.41015625 C73.96828125 148.35957031 74.0146875 147.30898437 74.0625 146.2265625 C74.28948995 138.75458755 74.37681542 132.97188044 70.7578125 126.234375 C69.43361744 123.34465961 69.90081111 121.33720608 70.921875 118.41015625 C72.421875 116.22265625 72.421875 116.22265625 73.921875 114.41015625 C75.22044462 110.51444738 75.18511636 106.78485233 75.234375 102.72265625 C75.27788086 101.55573242 75.27788086 101.55573242 75.32226562 100.36523438 C75.37886093 95.14540621 74.4468705 91.60964476 71.84082031 87.0769043 C70.462598 84.5771371 70.29307799 83.20480962 70.921875 80.41015625 C71.73763175 79.21051396 72.57363713 78.02455608 73.421875 76.84765625 C76.90709914 71.60991884 76.67597293 66.50031672 75.921875 60.41015625 C74.39039508 53.77009687 71.3263126 49.17668183 65.859375 45.16015625 C61.8546778 42.97972458 57.86671093 42.88789677 53.375 42.78125 C50.43266142 42.33615101 49.7496611 41.70008145 47.921875 39.41015625 C47.14070313 38.45109375 47.14070313 38.45109375 46.34375 37.47265625 C45.79203125 36.79203125 45.2403125 36.11140625 44.671875 35.41015625 C40.82980508 31.04671985 37.43130321 28.86465597 31.5390625 28.1015625 C25.51011589 27.7973496 20.81516419 28.79794277 15.921875 32.41015625 C12.79812789 35.46448676 10.34062509 38.78203112 7.921875 42.41015625 C5.3828125 42.74609375 5.3828125 42.74609375 2.296875 42.78515625 C-3.6618707 43.16337604 -7.69660719 44.26191369 -12.078125 48.41015625 C-17.72765078 55.65567306 -18.95136073 62.31012078 -18.078125 71.41015625 C-16.96081774 74.70113401 -15.57986067 77.90842058 -13.078125 80.41015625 C-12.65150294 85.10299886 -13.40787907 87.56500211 -16.078125 91.41015625 C-17.68221488 94.618336 -17.30431586 98.07687955 -17.328125 101.59765625 C-17.34875 102.34080078 -17.369375 103.08394531 -17.390625 103.84960938 C-17.4370389 110.46939244 -15.78214768 114.85412223 -12.078125 120.41015625 C-12.34986352 123.58043894 -13.27714842 125.8320859 -14.640625 128.72265625 C-17.21653528 135.18744078 -16.30187004 142.58178918 -16.078125 149.41015625 C-20.05270402 147.88044432 -23.10611076 146.55199987 -26.078125 143.41015625 C-26.82116095 138.85906105 -25.78373882 135.18873427 -24.515625 130.84765625 C-23.02787603 125.65816221 -22.99359167 122.4479852 -24.82421875 117.3203125 C-28.25065217 107.20495642 -28.15379558 97.58710762 -24.69140625 87.51171875 C-23.39915416 83.08349185 -24.87829379 79.87376466 -26.640625 75.78515625 C-29.54356655 68.18840374 -28.88510165 60.66057046 -26.015625 53.16015625 C-24.23748879 49.18489772 -22.48421532 46.67665406 -19.265625 43.78515625 C-15.89785975 40.33029362 -15.70696384 37.55796127 -15.69921875 32.94091797 C-15.76516094 30.55196824 -15.85414904 28.16513874 -15.953125 25.77734375 C-16.31606986 16.94190478 -14.27060221 9.60598344 -8.890625 2.53515625 C-5.6408977 0.07980674 -3.97270528 -0.29123215 0 0 Z " fill="#080808" transform="translate(61.078125,18.58984375)"/>
<path d="M0 0 C4.97014793 3.06668702 9.69758389 6.21270972 11.9375 11.8125 C12.6140575 16.71545372 12.61328887 21.2206965 10.3125 25.6875 C6.38871462 30.8503755 2.07452247 33.05906501 -4.0625 34.8125 C-13.15977035 35.69140818 -21.14647129 34.91173549 -28.9375 30 C-32.67844748 26.14902465 -34.23146939 22.64242239 -34.4375 17.3125 C-34.22845968 12.32061714 -33.03222931 8.84059166 -29.48046875 5.18359375 C-21.68164699 -1.86762854 -10.00685433 -3.95776711 0 0 Z " fill="#F6F6F6" transform="translate(101.0625,83.1875)"/>
<path d="M0 0 C4.97014793 3.06668702 9.69758389 6.21270972 11.9375 11.8125 C12.6140575 16.71545372 12.61328887 21.2206965 10.3125 25.6875 C6.38871462 30.8503755 2.07452247 33.05906501 -4.0625 34.8125 C-13.15977035 35.69140818 -21.14647129 34.91173549 -28.9375 30 C-32.67844748 26.14902465 -34.23146939 22.64242239 -34.4375 17.3125 C-34.22845968 12.32061714 -33.03222931 8.84059166 -29.48046875 5.18359375 C-21.68164699 -1.86762854 -10.00685433 -3.95776711 0 0 Z M-26.5625 10.0625 C-28.69877655 13.97900702 -28.48584023 16.36742763 -28.0625 20.8125 C-26.55105887 24.69186558 -24.49111757 26.29058097 -20.671875 28.046875 C-13.81327406 30.05927887 -5.8350562 30.08274098 0.6875 27 C4.07383716 25.02023211 4.07383716 25.02023211 5.9375 21.8125 C6.63068922 17.50827859 6.49212953 13.89764473 4.5 10 C-0.85318925 5.4302043 -6.77943556 3.06683327 -13.859375 3.42578125 C-18.96905355 4.32269291 -22.74781237 6.62928113 -26.5625 10.0625 Z " fill="#0B0B0B" transform="translate(101.0625,83.1875)"/>
<path d="M0 0 C0.66 0 1.32 0 2 0 C6.95793617 8.5214528 6.39493175 16.44484562 6 26 C4.35369672 25.85957123 2.70795821 25.71250671 1.0625 25.5625 C-0.31228516 25.44068359 -0.31228516 25.44068359 -1.71484375 25.31640625 C-4 25 -4 25 -5 24 C-5.7061039 15.57305512 -5.52004292 8.31557148 -1 1 C-0.67 0.67 -0.34 0.34 0 0 Z " fill="#F6F6F6" transform="translate(120,27)"/>
<path d="M0 0 C3.34522891 1.40997252 3.92425278 1.85932659 5.75 5.25 C7.79062412 11.24987852 7.44105413 17.74890584 7 24 C5.33657163 25.66342837 3.2174291 25.36048097 0.9375 25.5625 C-0.44115234 25.68818359 -0.44115234 25.68818359 -1.84765625 25.81640625 C-2.55792969 25.87699219 -3.26820312 25.93757813 -4 26 C-4.738041 8.14350797 -4.738041 8.14350797 0 0 Z " fill="#F7F7F7" transform="translate(58,27)"/>
<path d="M0 0 C3.0625 0.375 3.0625 0.375 5 2 C6.42276745 5.18030371 6.01651173 7.07265171 5.0625 10.375 C2.23366253 11.78941874 0.18873255 11.69400332 -2.9375 11.375 C-4.875 9.6875 -4.875 9.6875 -5.9375 7.375 C-5.616701 2.88381401 -4.74066611 0.60519142 0 0 Z " fill="#0B0B0B" transform="translate(118.9375,82.625)"/>
<path d="M0 0 C3.0625 0.3125 3.0625 0.3125 5 1.5 C6.0625 3.3125 6.0625 3.3125 5.875 5.8125 C5.0625 8.3125 5.0625 8.3125 3.0625 11.3125 C-0.09478506 11.71555767 -2.08980863 11.80470789 -4.875 10.1875 C-5.9375 8.3125 -5.9375 8.3125 -5.75 5.25 C-4.6778982 1.37393966 -4.050591 0.43091394 0 0 Z " fill="#0A0A0A" transform="translate(60.9375,82.6875)"/>
<path d="M0 0 C2.05078125 0.03255208 4.1015625 0.06510417 6.15234375 0.09765625 C6.48234375 1.41765625 6.81234375 2.73765625 7.15234375 4.09765625 C6.16234375 4.42765625 5.17234375 4.75765625 4.15234375 5.09765625 C4.15234375 7.07765625 4.15234375 9.05765625 4.15234375 11.09765625 C2.50234375 10.76765625 0.85234375 10.43765625 -0.84765625 10.09765625 C-1.20881671 8.62018165 -1.56140673 7.1406095 -1.91015625 5.66015625 C-2.10738281 4.83644531 -2.30460937 4.01273437 -2.5078125 3.1640625 C-2.67603516 2.14119141 -2.67603516 2.14119141 -2.84765625 1.09765625 C-1.84765625 0.09765625 -1.84765625 0.09765625 0 0 Z " fill="#111111" transform="translate(87.84765625,94.90234375)"/>
</svg>
